<?xml version="1.0" encoding="UTF-8" standalone="no"?>
<!-- Created with Inkscape (http://www.inkscape.org/) -->

<svg
   xmlns:dc="http://purl.org/dc/elements/1.1/"
   xmlns:cc="http://creativecommons.org/ns#"
   xmlns:rdf="http://www.w3.org/1999/02/22-rdf-syntax-ns#"
   xmlns:svg="http://www.w3.org/2000/svg"
   xmlns="http://www.w3.org/2000/svg"
   xmlns:sodipodi="http://sodipodi.sourceforge.net/DTD/sodipodi-0.dtd"
   xmlns:inkscape="http://www.inkscape.org/namespaces/inkscape"
   width="744.09448819"
   height="1052.3622047"
   id="svg3647"
   version="1.1"
   inkscape:version="0.47 r22583"
   sodipodi:docname="New document 5">
  <defs
     id="defs3649">
    <inkscape:perspective
       sodipodi:type="inkscape:persp3d"
       inkscape:vp_x="0 : 526.18109 : 1"
       inkscape:vp_y="0 : 1000 : 0"
       inkscape:vp_z="744.09448 : 526.18109 : 1"
       inkscape:persp3d-origin="372.04724 : 350.78739 : 1"
       id="perspective3655" />
  </defs>
  <sodipodi:namedview
     id="base"
     pagecolor="#ffffff"
     bordercolor="#666666"
     borderopacity="1.0"
     inkscape:pageopacity="0.0"
     inkscape:pageshadow="2"
     inkscape:zoom="0.35355339"
     inkscape:cx="313.40296"
     inkscape:cy="237.14144"
     inkscape:document-units="px"
     inkscape:current-layer="layer1"
     showgrid="false"
     inkscape:window-width="1031"
     inkscape:window-height="688"
     inkscape:window-x="32"
     inkscape:window-y="24"
     inkscape:window-maximized="0" />
  <metadata
     id="metadata3652">
    <rdf:RDF>
      <cc:Work
         rdf:about="">
        <dc:format>image/svg+xml</dc:format>
        <dc:type
           rdf:resource="http://purl.org/dc/dcmitype/StillImage" />
        <dc:title></dc:title>
      </cc:Work>
    </rdf:RDF>
  </metadata>
  <g
     inkscape:label="Layer 1"
     inkscape:groupmode="layer"
     id="layer1">
    <path
       style="fill:#c3b4f0;stroke:none;stroke-opacity:1;fill-opacity:1"
       d="m 577.14286,680.93363 c 0,63.11826 -78.66997,114.28571 -175.71428,114.28571 -97.04432,0 -169.99999,-59.73888 -169.99999,-122.85714 0,-31.55913 -11.76109,-86.55913 20.03694,-93.66935 31.79803,-7.11021 107.15518,33.66936 155.67734,33.66936 97.04431,0 169.99999,5.45316 169.99999,68.57142 z"
       id="path3657"
       sodipodi:nodetypes="cssssc" />
    <path
       sodipodi:type="arc"
       style="fill:#cebce1;stroke:none;stroke-opacity:1;fill-opacity:1"
       id="path4170"
       sodipodi:cx="212.85715"
       sodipodi:cy="535.2193"
       sodipodi:rx="67.14286"
       sodipodi:ry="60"
       d="m 280.00001,535.2193 a 67.14286,60 0 1 1 -134.28572,0 67.14286,60 0 1 1 134.28572,0 z"
       transform="matrix(1.5492133,0,0,1.5193577,-125.4754,-280.82743)" />
    <path
       style="fill:#f0d4b4;stroke:none;stroke-opacity:1;fill-opacity:1"
       d="m 757.14286,640.93361 -184.78113,18.96428 -13.52589,-20.86242 170.72641,-93.17328 27.58061,95.07142 z"
       id="path4172"
       sodipodi:nodetypes="ccccc" />
    <path
       style="fill:#f0d4b4;stroke:none;stroke-opacity:1;fill-opacity:1"
       d="M -8.5714291,546.64788 105.33151,518.99956 106.09707,551.43907 -8.5714291,546.64788 z"
       id="path4175"
       sodipodi:nodetypes="cccc" />
    <path
       sodipodi:type="arc"
       style="fill:#ffffe1;stroke:none;stroke-opacity:1;fill-opacity:1"
       id="path4178"
       sodipodi:cx="212.85715"
       sodipodi:cy="533.79077"
       sodipodi:rx="35.714287"
       sodipodi:ry="55.714287"
       d="m 248.57143,533.79077 a 35.714287,55.714287 0 1 1 -71.42857,0 35.714287,55.714287 0 1 1 71.42857,0 z"
       transform="matrix(1.3167589,0,0,1.1517686,-78.852975,-89.584081)" />
    <path
       sodipodi:type="arc"
       style="fill:#000000;fill-opacity:1;stroke:#000000;stroke-opacity:1"
       id="path4180"
       sodipodi:cx="201.42857"
       sodipodi:cy="528.07648"
       sodipodi:rx="24.285715"
       sodipodi:ry="38.57143"
       d="m 225.71429,528.07648 a 24.285715,38.57143 0 1 1 -48.57143,0 24.285715,38.57143 0 1 1 48.57143,0 z"
       transform="translate(-8.5714286,-11.428571)" />
    <path
       style="fill:none;stroke:#000000;stroke-width:3;stroke-linecap:butt;stroke-linejoin:miter;stroke-miterlimit:4;stroke-opacity:1;stroke-dasharray:none"
       d="m 359.92071,787.39582 -46.24226,96.09507"
       id="path4182" />
    <path
       style="fill:none;stroke:#000000;stroke-width:3;stroke-linecap:butt;stroke-linejoin:miter;stroke-opacity:1;stroke-miterlimit:4;stroke-dasharray:none"
       d="m 395,793.36218 -21,97"
       id="path4184"
       sodipodi:nodetypes="cc" />
    <path
       style="fill:none;stroke:#000000;stroke-width:3;stroke-linecap:butt;stroke-linejoin:miter;stroke-miterlimit:4;stroke-opacity:1;stroke-dasharray:none"
       d="m 282.30045,888.87011 29.3991,-4.70748 -23.68261,20.3991"
       id="path4190" />
    <path
       style="fill:none;stroke:#000000;stroke-width:3;stroke-linecap:butt;stroke-linejoin:miter;stroke-miterlimit:4;stroke-opacity:1;stroke-dasharray:none"
       d="m 314.08762,884.27456 -7.17524,25.17524"
       id="path4192" />
    <path
       style="fill:none;stroke:#000000;stroke-width:3;stroke-linecap:butt;stroke-linejoin:miter;stroke-miterlimit:4;stroke-opacity:1;stroke-dasharray:none"
       d="m 349,904.36218 26,-15 -9,26"
       id="path4194" />
    <path
       style="fill:none;stroke:#000000;stroke-width:3;stroke-linecap:butt;stroke-linejoin:miter;stroke-miterlimit:4;stroke-opacity:1;stroke-dasharray:none"
       d="m 375,889.36218 9,25"
       id="path4196" />
  </g>
</svg>
