<?xml version="1.0" encoding="UTF-8" standalone="no"?>
<!-- Created with Inkscape (http://www.inkscape.org/) -->

<svg
   xmlns:dc="http://purl.org/dc/elements/1.1/"
   xmlns:cc="http://creativecommons.org/ns#"
   xmlns:rdf="http://www.w3.org/1999/02/22-rdf-syntax-ns#"
   xmlns:svg="http://www.w3.org/2000/svg"
   xmlns="http://www.w3.org/2000/svg"
   xmlns:sodipodi="http://sodipodi.sourceforge.net/DTD/sodipodi-0.dtd"
   xmlns:inkscape="http://www.inkscape.org/namespaces/inkscape"
   width="744.09448819"
   height="1052.3622047"
   id="svg4219"
   version="1.1"
   inkscape:version="0.47 r22583"
   sodipodi:docname="frog.svg">
  <defs
     id="defs4221">
    <inkscape:perspective
       sodipodi:type="inkscape:persp3d"
       inkscape:vp_x="0 : 526.18109 : 1"
       inkscape:vp_y="0 : 1000 : 0"
       inkscape:vp_z="744.09448 : 526.18109 : 1"
       inkscape:persp3d-origin="372.04724 : 350.78739 : 1"
       id="perspective4227" />
    <inkscape:perspective
       id="perspective4753"
       inkscape:persp3d-origin="0.5 : 0.33333333 : 1"
       inkscape:vp_z="1 : 0.5 : 1"
       inkscape:vp_y="0 : 1000 : 0"
       inkscape:vp_x="0 : 0.5 : 1"
       sodipodi:type="inkscape:persp3d" />
    <inkscape:perspective
       id="perspective4779"
       inkscape:persp3d-origin="0.5 : 0.33333333 : 1"
       inkscape:vp_z="1 : 0.5 : 1"
       inkscape:vp_y="0 : 1000 : 0"
       inkscape:vp_x="0 : 0.5 : 1"
       sodipodi:type="inkscape:persp3d" />
    <inkscape:perspective
       id="perspective4801"
       inkscape:persp3d-origin="0.5 : 0.33333333 : 1"
       inkscape:vp_z="1 : 0.5 : 1"
       inkscape:vp_y="0 : 1000 : 0"
       inkscape:vp_x="0 : 0.5 : 1"
       sodipodi:type="inkscape:persp3d" />
    <inkscape:perspective
       id="perspective4828"
       inkscape:persp3d-origin="0.5 : 0.33333333 : 1"
       inkscape:vp_z="1 : 0.5 : 1"
       inkscape:vp_y="0 : 1000 : 0"
       inkscape:vp_x="0 : 0.5 : 1"
       sodipodi:type="inkscape:persp3d" />
    <inkscape:perspective
       id="perspective5616"
       inkscape:persp3d-origin="0.5 : 0.33333333 : 1"
       inkscape:vp_z="1 : 0.5 : 1"
       inkscape:vp_y="0 : 1000 : 0"
       inkscape:vp_x="0 : 0.5 : 1"
       sodipodi:type="inkscape:persp3d" />
  </defs>
  <sodipodi:namedview
     id="base"
     pagecolor="#ffffff"
     bordercolor="#666666"
     borderopacity="1.0"
     inkscape:pageopacity="0.0"
     inkscape:pageshadow="2"
     inkscape:zoom="0.35"
     inkscape:cx="354.10479"
     inkscape:cy="557.27836"
     inkscape:document-units="px"
     inkscape:current-layer="layer1"
     showgrid="false"
     inkscape:window-width="886"
     inkscape:window-height="688"
     inkscape:window-x="273"
     inkscape:window-y="24"
     inkscape:window-maximized="0" />
  <metadata
     id="metadata4224">
    <rdf:RDF>
      <cc:Work
         rdf:about="">
        <dc:format>image/svg+xml</dc:format>
        <dc:type
           rdf:resource="http://purl.org/dc/dcmitype/StillImage" />
        <dc:title></dc:title>
      </cc:Work>
    </rdf:RDF>
  </metadata>
  <g
     inkscape:label="Layer 1"
     inkscape:groupmode="layer"
     id="layer1">
    <path
       style="fill:#9ba010;fill-opacity:1;stroke:none"
       d="m 545.71428,242.3622 c 0,45.36625 15.73751,126.43768 -14.25088,156.16755 -29.98839,29.72986 -105.70267,16.6896 -151.4634,16.6896 -45.76074,0 -127.18931,15.8974 -157.17769,-13.83246 -29.98839,-29.72987 -8.53659,-113.65844 -8.53659,-159.02469 0,-90.7325 74.19281,-164.285721 165.71428,-164.285721 91.52147,0 165.71428,73.553221 165.71428,164.285721 z"
       id="path4229"
       sodipodi:nodetypes="csssssc" />
    <path
       style="fill:#ffffff;fill-opacity:1;stroke:none"
       d="m 530.58476,250.82936 c 0,41.18979 14.36101,114.7977 -13.0044,141.79061 -27.36539,26.9929 -96.45719,15.15313 -138.21537,15.15313 -41.7582,0 -116.06448,14.43387 -143.42987,-12.55902 -27.36539,-26.99292 -7.78992,-103.19493 -7.78992,-144.38472 0,-82.37957 67.7034,-149.16141 151.21979,-149.16141 83.51637,0 151.21977,66.78184 151.21977,149.16141 z"
       id="path4229-0"
       sodipodi:nodetypes="csssssc" />
    <path
       style="fill:#d1d72a;fill-opacity:1;stroke:#000000;stroke-opacity:1"
       d="m 287.14286,378.07648 c 0,11.83467 2.32488,31.12038 -10.0841,38.876 -12.40899,7.75562 -39.55185,3.98114 -58.48732,3.98114 -18.93548,0 -47.50691,2.34591 -59.9159,-5.40971 -12.40898,-7.75562 -8.65553,-25.61276 -8.65553,-37.44743 0,-23.66935 30.70047,-42.85715 68.57143,-42.85715 37.87095,0 68.57142,19.1878 68.57142,42.85715 z"
       id="path4232"
       sodipodi:nodetypes="csssssc" />
    <path
       style="fill:#d1d72a;fill-opacity:1;stroke:#000000;stroke-opacity:1"
       d="m 604.46599,377.61732 c 0,11.83467 2.32488,31.12038 -10.0841,38.876 -12.40899,7.75562 -39.55185,3.98114 -58.48732,3.98114 -18.93548,0 -47.50691,2.34591 -59.9159,-5.40971 -12.40898,-7.75562 -8.65553,-25.61276 -8.65553,-37.44743 0,-23.66935 30.70047,-42.85715 68.57143,-42.85715 37.87095,0 68.57142,19.1878 68.57142,42.85715 z"
       id="path4232-6"
       sodipodi:nodetypes="csssssc" />
    <path
       sodipodi:type="arc"
       style="fill:#ffffff;fill-opacity:1;stroke:#000000;stroke-width:3;stroke-miterlimit:4;stroke-opacity:1;stroke-dasharray:none"
       id="path4767"
       sodipodi:cx="315.71429"
       sodipodi:cy="362.36218"
       sodipodi:rx="20"
       sodipodi:ry="21.428572"
       d="m 335.71429,362.36218 a 20,21.428572 0 1 1 -40,0 20,21.428572 0 1 1 40,0 z"
       transform="translate(0,-291.42857)" />
    <path
       transform="translate(127.14284,-291.42857)"
       sodipodi:type="arc"
       style="fill:#ffffff;fill-opacity:1;stroke:#000000;stroke-width:3;stroke-miterlimit:4;stroke-opacity:1;stroke-dasharray:none"
       id="path4767-3"
       sodipodi:cx="315.71429"
       sodipodi:cy="362.36218"
       sodipodi:rx="20"
       sodipodi:ry="21.428572"
       d="m 335.71429,362.36218 a 20,21.428572 0 1 1 -40,0 20,21.428572 0 1 1 40,0 z" />
    <path
       style="fill:none;stroke:#000000;stroke-width:5;stroke-linecap:butt;stroke-linejoin:miter;stroke-miterlimit:4;stroke-opacity:1;stroke-dasharray:none"
       d="M 462.85715,202.3622 C 370.00001,345.21934 298.57143,199.50505 298.57143,199.50505"
       id="path4815"
       sodipodi:nodetypes="cc" />
    <path
       style="fill:#000000;fill-opacity:1;stroke:#000000;stroke-width:3;stroke-miterlimit:4;stroke-opacity:1"
       d="m 329.99999,67.362169 c 0,3.5504 -6.07614,2.89304 -13.57143,2.89304 -7.49529,0 -13.57143,0.65736 -13.57143,-2.89304 0,-3.5504 6.07614,-6.42857 13.57143,-6.42857 7.49529,0 13.57143,2.87817 13.57143,6.42857 z"
       id="path4817"
       sodipodi:nodetypes="csssc" />
    <path
       style="fill:#000000;fill-opacity:1;stroke:#000000;stroke-width:3;stroke-miterlimit:4;stroke-opacity:1"
       d="m 457.53347,67.187339 c 0,3.5504 -6.07614,2.89304 -13.57143,2.89304 -7.49529,0 -13.57143,0.65736 -13.57143,-2.89304 0,-3.5504 6.07614,-6.42857 13.57143,-6.42857 7.49529,0 13.57143,2.87817 13.57143,6.42857 z"
       id="path4817-9"
       sodipodi:nodetypes="csssc" />
    <path
       style="fill:#9ba010;fill-opacity:1;stroke:none"
       d="m 522.94727,788.11733 c 0,45.36625 15.73751,126.43768 -14.25088,156.16755 -29.98839,29.72989 -105.70267,16.6896 -151.4634,16.6896 -45.76074,0 -127.18931,15.89739 -157.17769,-13.83246 -29.98839,-29.72987 -8.53659,-113.65844 -8.53659,-159.02469 0,-90.7325 74.19281,-164.28573 165.71428,-164.28573 91.52147,0 165.71428,73.55323 165.71428,164.28573 z"
       id="path4229-9"
       sodipodi:nodetypes="csssssc" />
    <path
       style="fill:#ffffff;fill-opacity:1;stroke:none"
       d="m 507.81775,796.58449 c 0,41.18979 14.36101,114.7977 -13.0044,141.79061 -27.36539,26.9929 -96.45719,15.15313 -138.21537,15.15313 -41.7582,0 -116.06448,14.43387 -143.42987,-12.55902 -27.36539,-26.99292 -7.78992,-103.19493 -7.78992,-144.38472 0,-82.37957 67.7034,-149.16142 151.21979,-149.16142 83.51637,0 151.21977,66.78185 151.21977,149.16142 z"
       id="path4229-0-4"
       sodipodi:nodetypes="csssssc" />
    <path
       style="fill:#d1d72a;fill-opacity:1;stroke:#000000;stroke-opacity:1"
       d="m 264.37585,923.83161 c 0,11.83467 2.32488,31.12038 -10.0841,38.876 -12.40899,7.75562 -39.55185,3.98114 -58.48732,3.98114 -18.93548,0 -47.50691,2.34591 -59.9159,-5.40971 -12.40898,-7.75562 -8.65553,-25.61276 -8.65553,-37.44743 0,-23.66935 30.70047,-42.85715 68.57143,-42.85715 37.87095,0 68.57142,19.1878 68.57142,42.85715 z"
       id="path4232-2"
       sodipodi:nodetypes="csssssc" />
    <path
       style="fill:#d1d72a;fill-opacity:1;stroke:#000000;stroke-opacity:1"
       d="m 581.69898,923.37245 c 0,11.83467 2.32488,31.12038 -10.0841,38.876 -12.40899,7.75562 -39.55185,3.98114 -58.48732,3.98114 -18.93548,0 -47.50691,2.34591 -59.9159,-5.40971 -12.40898,-7.75562 -8.65553,-25.61276 -8.65553,-37.44743 0,-23.66935 30.70047,-42.85715 68.57143,-42.85715 37.87095,0 68.57142,19.1878 68.57142,42.85715 z"
       id="path4232-6-1"
       sodipodi:nodetypes="csssssc" />
    <path
       sodipodi:type="arc"
       style="fill:#ffffff;fill-opacity:1;stroke:#000000;stroke-width:3;stroke-miterlimit:4;stroke-opacity:1;stroke-dasharray:none"
       id="path4767-0"
       sodipodi:cx="315.71429"
       sodipodi:cy="362.36218"
       sodipodi:rx="20"
       sodipodi:ry="21.428572"
       d="m 335.71429,362.36218 a 20,21.428572 0 1 1 -40,0 20,21.428572 0 1 1 40,0 z"
       transform="translate(-22.767011,254.32656)" />
    <path
       transform="translate(104.37583,254.32656)"
       sodipodi:type="arc"
       style="fill:#ffffff;fill-opacity:1;stroke:#000000;stroke-width:3;stroke-miterlimit:4;stroke-opacity:1;stroke-dasharray:none"
       id="path4767-3-2"
       sodipodi:cx="315.71429"
       sodipodi:cy="362.36218"
       sodipodi:rx="20"
       sodipodi:ry="21.428572"
       d="m 335.71429,362.36218 a 20,21.428572 0 1 1 -40,0 20,21.428572 0 1 1 40,0 z" />
    <path
       style="fill:none;stroke:#000000;stroke-width:5;stroke-linecap:butt;stroke-linejoin:miter;stroke-miterlimit:4;stroke-opacity:1;stroke-dasharray:none"
       d="M 440.09014,808.01987 C 347.233,665.16273 275.80442,810.87702 275.80442,810.87702"
       id="path4815-4"
       sodipodi:nodetypes="cc" />
    <path
       style="fill:#000000;fill-opacity:1;stroke:#000000;stroke-width:3;stroke-miterlimit:4;stroke-opacity:1"
       d="m 307.23298,613.11729 c 0,3.5504 -6.07614,2.89304 -13.57143,2.89304 -7.49529,0 -13.57143,0.65736 -13.57143,-2.89304 0,-3.5504 6.07614,-6.42857 13.57143,-6.42857 7.49529,0 13.57143,2.87817 13.57143,6.42857 z"
       id="path4817-3"
       sodipodi:nodetypes="csssc" />
    <path
       style="fill:#000000;fill-opacity:1;stroke:#000000;stroke-width:3;stroke-miterlimit:4;stroke-opacity:1"
       d="m 434.76646,612.94246 c 0,3.5504 -6.07614,2.89304 -13.57143,2.89304 -7.49529,0 -13.57143,0.65736 -13.57143,-2.89304 0,-3.5504 6.07614,-6.42857 13.57143,-6.42857 7.49529,0 13.57143,2.87817 13.57143,6.42857 z"
       id="path4817-9-4"
       sodipodi:nodetypes="csssc" />
  </g>
</svg>
